<?xml version="1.0" standalone="no"?>
<!DOCTYPE svg PUBLIC "-//W3C//DTD SVG 20010904//EN"
 "http://www.w3.org/TR/2001/REC-SVG-20010904/DTD/svg10.dtd">
<svg version="1.0" xmlns="http://www.w3.org/2000/svg"
 width="2000.000000pt" height="1500.000000pt" viewBox="0 0 2000.000000 1500.000000"
 preserveAspectRatio="xMidYMid meet">

<g transform="translate(0.000000,1500.000000) scale(0.100000,-0.100000)"
fill="#000000" stroke="none">
<path d="M4605 9829 c-686 -70 -1318 -455 -1706 -1038 -461 -693 -515 -1588
-143 -2334 341 -681 994 -1158 1744 -1272 150 -23 412 -30 566 -16 978 92
1795 782 2048 1730 57 212 70 326 71 596 0 274 -11 371 -65 583 -43 166 -92
299 -170 457 -194 396 -499 730 -878 963 -290 178 -649 299 -986 331 -124 12
-362 12 -481 0z m540 -328 c175 -27 304 -61 463 -125 595 -241 1041 -749 1202
-1372 82 -317 82 -691 0 -1008 -161 -623 -607 -1131 -1202 -1372 -536 -216
-1148 -191 -1663 69 -387 195 -708 514 -900 897 -386 770 -245 1700 351 2312
322 331 723 536 1178 603 143 20 417 18 571 -4z"/>
<path d="M4731 8620 c-408 -57 -692 -378 -876 -992 -123 -412 -137 -680 -44
-874 116 -244 457 -375 979 -377 525 -1 934 127 1074 337 60 90 78 154 84 294
7 187 -25 353 -133 678 -204 616 -499 915 -926 938 -52 2 -123 1 -158 -4z
m285 -125 c314 -72 545 -365 713 -900 88 -283 115 -428 109 -584 -7 -170 -55
-261 -181 -342 -278 -180 -933 -239 -1367 -124 -438 117 -523 379 -335 1028
71 245 147 422 246 569 204 301 493 427 815 353z"/>
<path d="M4695 8144 c-76 -28 -170 -46 -280 -52 -102 -7 -110 -9 -121 -31 -16
-31 1 -69 34 -78 74 -18 376 31 438 72 32 20 32 68 2 89 -26 19 -22 19 -73 0z"/>
<path d="M4927 8055 c-22 -21 -22 -58 1 -78 41 -37 233 -77 370 -77 69 0 85 3
102 20 24 24 25 38 5 66 -13 19 -27 22 -132 27 -75 3 -147 13 -198 27 -117 33
-130 34 -148 15z"/>
<path d="M4357 7794 c-12 -12 -8 -63 9 -102 61 -146 257 -178 361 -59 33 38
57 102 51 140 -3 22 -6 22 -209 25 -113 1 -208 -1 -212 -4z"/>
<path d="M4925 7781 c-16 -50 33 -146 96 -188 63 -41 150 -45 218 -8 69 38
105 92 106 159 l0 51 -207 3 c-198 2 -207 2 -213 -17z"/>
<path d="M4152 7532 c-29 -26 -52 -51 -52 -57 0 -5 83 -100 184 -209 163 -176
185 -204 191 -240 11 -79 28 -128 49 -141 17 -12 39 -12 121 -4 63 7 156 8
250 3 271 -14 272 -14 306 24 77 86 -9 171 -222 221 -94 22 -324 51 -409 51
l-55 0 -148 200 c-82 110 -152 200 -155 200 -4 0 -31 -22 -60 -48z m592 -477
c107 -13 306 -51 306 -59 0 -1 -89 -2 -199 -1 l-198 0 -27 38 c-15 20 -24 37
-19 37 4 0 66 -7 137 -15z"/>
</g>
</svg>
