<svg xmlns="http://www.w3.org/2000/svg" width="2000" height="626" viewBox="0 0 2000 626" version="1.1"><path d="M 294.500 1.049 C 287.350 1.504, 275.200 2.799, 267.500 3.928 C 259.800 5.056, 248.038 7.316, 241.361 8.948 C 234.685 10.580, 224.110 13.557, 217.861 15.563 C 211.613 17.569, 201.550 21.223, 195.500 23.683 C 189.450 26.144, 178.200 31.383, 170.500 35.326 C 162.800 39.269, 149.975 46.839, 142 52.147 C 134.025 57.456, 122.553 65.782, 116.506 70.650 C 110.460 75.517, 100.100 84.900, 93.485 91.500 C 86.871 98.100, 77.597 108.225, 72.878 114 C 68.159 119.775, 61.589 128.325, 58.278 133 C 54.968 137.675, 49.699 145.723, 46.569 150.885 C 43.440 156.046, 38.037 165.946, 34.562 172.885 C 31.088 179.823, 26.666 189.325, 24.736 194 C 22.806 198.675, 19.618 207.225, 17.652 213 C 15.686 218.775, 12.715 228.798, 11.050 235.274 C 9.385 241.750, 7.123 252.325, 6.024 258.774 C 4.925 265.223, 3.584 274.550, 3.045 279.500 C 2.505 284.450, 1.773 295.025, 1.418 303 C 1.047 311.339, 1.265 324.085, 1.932 333 C 2.570 341.525, 3.763 353, 4.583 358.500 C 5.403 364, 6.961 372.775, 8.047 378 C 9.132 383.225, 11.608 393.054, 13.549 399.843 C 15.491 406.631, 19.476 418.331, 22.405 425.843 C 25.335 433.354, 30.747 445.516, 34.432 452.868 C 38.118 460.221, 44.082 471.021, 47.687 476.868 C 51.292 482.716, 58.635 493.350, 64.005 500.500 C 69.375 507.650, 78.484 518.675, 84.248 525 C 90.012 531.325, 99.236 540.467, 104.745 545.315 C 110.255 550.164, 118.303 556.869, 122.631 560.216 C 126.959 563.563, 136.402 570.196, 143.615 574.956 C 150.828 579.716, 162.978 586.813, 170.615 590.727 C 178.252 594.641, 189.450 599.856, 195.500 602.317 C 201.550 604.777, 211.450 608.376, 217.500 610.315 C 223.550 612.254, 232.100 614.749, 236.500 615.860 C 240.900 616.971, 249.008 618.777, 254.517 619.872 C 260.027 620.967, 270.827 622.612, 278.517 623.527 C 287.475 624.593, 300.226 625.192, 314 625.193 C 327.540 625.194, 340.485 624.598, 348.965 623.583 C 356.370 622.697, 368.971 620.652, 376.967 619.039 C 384.963 617.426, 397.498 614.266, 404.823 612.017 C 412.148 609.768, 422.721 606.115, 428.320 603.900 C 433.919 601.685, 444.350 597.009, 451.500 593.511 C 458.650 590.012, 469.426 584.166, 475.447 580.519 C 481.467 576.872, 491.142 570.431, 496.947 566.205 C 502.751 561.979, 512 554.643, 517.500 549.902 C 523 545.161, 532.477 536.157, 538.561 529.891 C 544.644 523.626, 553.384 513.775, 557.984 508 C 562.583 502.225, 570.046 491.875, 574.569 485 C 579.092 478.125, 585.267 468, 588.293 462.500 C 591.319 457, 595.895 447.818, 598.464 442.095 C 601.032 436.372, 604.659 427.597, 606.522 422.595 C 608.386 417.593, 611.042 409.892, 612.426 405.481 C 613.809 401.071, 616.280 391.846, 617.917 384.981 C 619.554 378.117, 621.911 365.975, 623.155 358 C 625.132 345.317, 625.417 339.677, 625.432 313 C 625.446 286.094, 625.179 280.792, 623.166 268 C 621.911 260.025, 619.776 248.775, 618.423 243 C 617.069 237.225, 614.780 228.450, 613.335 223.500 C 611.890 218.550, 609.011 209.981, 606.937 204.459 C 604.864 198.936, 601.157 189.883, 598.700 184.342 C 596.242 178.800, 591.664 169.593, 588.526 163.883 C 585.387 158.172, 578.622 147.200, 573.492 139.500 C 568.363 131.800, 561.091 121.675, 557.333 117 C 553.575 112.325, 545.325 103.144, 539 96.597 C 532.675 90.050, 523 80.821, 517.500 76.086 C 512 71.352, 502.775 64.039, 497 59.835 C 491.225 55.631, 481.550 49.176, 475.500 45.490 C 469.450 41.805, 458.200 35.742, 450.500 32.017 C 442.800 28.291, 431.775 23.422, 426 21.196 C 420.225 18.969, 410.121 15.520, 403.546 13.530 C 396.971 11.539, 385.030 8.588, 377.010 6.970 C 368.991 5.352, 356.595 3.380, 349.465 2.589 C 342.334 1.798, 329.975 0.942, 322 0.687 C 314.025 0.431, 301.650 0.594, 294.500 1.049 M 282.950 45.437 C 277.148 46.173, 267.396 47.732, 261.280 48.902 C 255.164 50.072, 245.511 52.399, 239.830 54.072 C 234.148 55.745, 225.001 58.755, 219.503 60.759 C 214.004 62.764, 202.529 67.863, 194.003 72.091 C 185.476 76.319, 173.100 83.349, 166.500 87.712 C 159.900 92.075, 150 99.284, 144.500 103.731 C 139 108.179, 129.223 117.146, 122.774 123.659 C 116.324 130.172, 107.637 139.775, 103.470 145 C 99.303 150.225, 93.052 158.775, 89.579 164 C 86.106 169.225, 80.940 177.638, 78.099 182.696 C 75.258 187.753, 70.870 196.528, 68.349 202.196 C 65.827 207.863, 62.218 216.750, 60.329 221.945 C 58.440 227.140, 55.355 237.265, 53.473 244.445 C 51.591 251.625, 49.037 263.350, 47.799 270.500 C 45.808 281.994, 45.547 286.917, 45.547 313 C 45.547 339.083, 45.808 344.006, 47.799 355.500 C 49.037 362.650, 51.630 374.523, 53.559 381.885 C 55.489 389.247, 58.688 399.597, 60.667 404.885 C 62.646 410.173, 66.036 418.528, 68.201 423.451 C 70.366 428.373, 74.637 436.923, 77.691 442.451 C 80.746 447.978, 86.091 456.775, 89.569 462 C 93.047 467.225, 99.303 475.775, 103.470 481 C 107.637 486.225, 116.324 495.828, 122.774 502.341 C 129.223 508.854, 139 517.826, 144.500 522.279 C 150 526.732, 159.900 533.932, 166.500 538.280 C 173.100 542.628, 186.150 549.963, 195.500 554.580 C 206.555 560.039, 218.313 564.891, 229.122 568.456 C 238.264 571.470, 251.343 575.070, 258.186 576.456 C 265.029 577.841, 276.446 579.656, 283.558 580.488 C 290.669 581.319, 304.141 581.992, 313.494 581.983 C 322.847 581.973, 334.775 581.522, 340 580.980 C 345.225 580.438, 354.675 579.107, 361 578.022 C 367.325 576.937, 378.188 574.489, 385.140 572.582 C 392.092 570.675, 402.217 567.465, 407.640 565.447 C 413.063 563.430, 422.568 559.383, 428.762 556.454 C 434.956 553.524, 445.306 547.996, 451.762 544.169 C 458.218 540.342, 467.550 534.188, 472.500 530.493 C 477.450 526.799, 485.100 520.723, 489.500 516.991 C 493.900 513.259, 501.792 505.772, 507.037 500.353 C 512.282 494.934, 519.990 486.225, 524.165 481 C 528.340 475.775, 534.960 466.621, 538.876 460.658 C 542.792 454.694, 548.081 445.990, 550.629 441.315 C 553.178 436.640, 557.382 428.019, 559.972 422.157 C 562.563 416.296, 566.312 406.775, 568.305 401 C 570.298 395.225, 573.297 385.100, 574.969 378.500 C 576.641 371.900, 578.990 360.200, 580.190 352.500 C 582.004 340.859, 582.375 334.203, 582.389 313 C 582.404 291.583, 582.054 285.258, 580.208 273.500 C 578.998 265.800, 576.641 254.100, 574.969 247.500 C 573.297 240.900, 570.298 230.775, 568.305 225 C 566.312 219.225, 562.563 209.704, 559.972 203.843 C 557.382 197.981, 553.178 189.360, 550.629 184.685 C 548.081 180.010, 542.792 171.306, 538.876 165.342 C 534.960 159.379, 528.337 150.225, 524.157 145 C 519.977 139.775, 512.720 131.494, 508.029 126.599 C 503.338 121.703, 495 113.824, 489.500 109.089 C 484 104.355, 475.675 97.727, 471 94.362 C 466.325 90.997, 458.289 85.694, 453.142 82.577 C 447.995 79.461, 439.809 74.915, 434.950 72.475 C 430.092 70.035, 422.154 66.393, 417.309 64.381 C 412.464 62.368, 404.225 59.278, 399 57.512 C 393.775 55.746, 383.650 52.904, 376.500 51.195 C 369.350 49.486, 358.775 47.348, 353 46.443 C 346.070 45.358, 334.170 44.680, 318 44.449 C 301.473 44.213, 290.067 44.534, 282.950 45.437 M 305.500 162.624 C 303.300 162.820, 298.125 163.482, 294 164.095 C 289.875 164.707, 282.900 166.340, 278.500 167.723 C 274.100 169.105, 267.350 171.819, 263.500 173.754 C 259.650 175.689, 253.858 179.064, 250.628 181.256 C 247.398 183.447, 242.223 187.516, 239.128 190.298 C 236.033 193.080, 230.656 198.538, 227.181 202.428 C 223.705 206.318, 218.010 213.775, 214.524 219 C 211.039 224.225, 205.921 232.775, 203.152 238 C 200.383 243.225, 195.653 253.575, 192.641 261 C 189.629 268.425, 185.073 281.244, 182.517 289.487 C 179.960 297.729, 176.326 310.603, 174.441 318.096 C 172.556 325.588, 170.158 336.844, 169.111 343.109 C 168.064 349.374, 166.913 359, 166.553 364.500 C 166.194 370, 166.365 378.550, 166.935 383.500 C 167.505 388.450, 168.655 395.200, 169.491 398.500 C 170.328 401.800, 173.094 408.745, 175.640 413.933 C 179.284 421.359, 181.784 424.868, 187.393 430.433 C 191.653 434.658, 197.684 439.285, 202.392 441.939 C 206.724 444.381, 214.370 447.924, 219.384 449.812 C 224.398 451.701, 233.450 454.490, 239.500 456.010 C 245.550 457.530, 255.673 459.521, 261.995 460.433 C 268.317 461.345, 281.326 462.497, 290.905 462.993 C 301.690 463.552, 314.826 463.526, 325.410 462.927 C 334.809 462.394, 348.800 461.041, 356.500 459.921 C 364.200 458.800, 375 456.817, 380.500 455.513 C 386 454.210, 394.325 451.934, 399 450.455 C 403.675 448.977, 411.597 445.856, 416.604 443.520 C 421.611 441.185, 428.375 437.462, 431.635 435.248 C 434.895 433.034, 440.342 428.251, 443.740 424.619 C 447.566 420.529, 451.237 415.252, 453.384 410.757 C 455.290 406.766, 457.596 400.800, 458.508 397.500 C 459.469 394.023, 460.392 385.823, 460.701 378 C 461.086 368.274, 460.779 361.395, 459.604 353.391 C 458.707 347.281, 456.432 336.011, 454.550 328.345 C 452.668 320.680, 448.584 306.329, 445.475 296.454 C 442.366 286.579, 437.786 273.325, 435.297 267 C 432.809 260.675, 427.866 249.650, 424.313 242.500 C 420.760 235.350, 415.005 225.225, 411.525 220 C 408.045 214.775, 402.305 207.118, 398.769 202.984 C 395.233 198.850, 389.451 192.958, 385.920 189.891 C 382.389 186.824, 376.800 182.506, 373.500 180.296 C 370.200 178.085, 365.250 175.145, 362.500 173.762 C 359.750 172.379, 354.265 170.087, 350.312 168.668 C 346.359 167.249, 339.384 165.422, 334.812 164.608 C 330.240 163.794, 322.675 162.934, 318 162.698 C 313.325 162.462, 307.700 162.429, 305.500 162.624 M 295.740 179.583 C 291.472 180.354, 285.172 181.928, 281.740 183.079 C 278.308 184.231, 272.575 186.712, 269 188.593 C 265.425 190.475, 259.507 194.264, 255.848 197.013 C 252.189 199.763, 245.864 205.555, 241.791 209.884 C 237.718 214.214, 231.625 221.787, 228.251 226.713 C 224.877 231.639, 219.654 240.357, 216.644 246.085 C 213.635 251.813, 208.698 262.800, 205.675 270.500 C 202.651 278.200, 198.127 291.475, 195.621 300 C 193.115 308.525, 189.740 321.125, 188.122 328 C 186.504 334.875, 184.584 343.875, 183.856 348 C 183.117 352.184, 182.539 362.575, 182.549 371.500 C 182.563 383.763, 182.986 389.018, 184.361 394 C 185.348 397.575, 187.582 403.425, 189.327 407 C 191.256 410.953, 194.850 415.856, 198.499 419.512 C 202.347 423.368, 207.370 427.009, 212.500 429.663 C 216.900 431.939, 224.409 435.174, 229.187 436.851 C 233.965 438.528, 243.190 441.002, 249.687 442.350 C 256.184 443.697, 266.225 445.407, 272 446.149 C 278.628 447.001, 292.088 447.472, 308.500 447.425 C 326.860 447.373, 338.271 446.853, 347.334 445.655 C 354.392 444.721, 365.559 442.820, 372.149 441.428 C 378.739 440.037, 388.264 437.561, 393.315 435.925 C 398.367 434.290, 407.062 430.700, 412.638 427.946 C 419.417 424.599, 424.908 420.987, 429.208 417.046 C 433.058 413.518, 436.880 408.814, 438.728 405.326 C 440.427 402.122, 442.316 397.620, 442.927 395.323 C 443.538 393.025, 444.490 387.539, 445.043 383.130 C 445.722 377.711, 445.715 371.612, 445.019 364.307 C 444.452 358.363, 442.890 348.223, 441.547 341.774 C 440.203 335.324, 437.262 323.689, 435.011 315.919 C 432.760 308.148, 428.845 295.650, 426.312 288.145 C 423.778 280.640, 419.333 269.036, 416.433 262.358 C 413.534 255.679, 409.034 246.454, 406.433 241.858 C 403.832 237.261, 399.892 230.800, 397.678 227.500 C 395.463 224.200, 390.971 218.241, 387.697 214.258 C 384.423 210.274, 378.882 204.572, 375.384 201.586 C 371.886 198.600, 365.702 194.087, 361.642 191.556 C 357.582 189.026, 350.589 185.616, 346.102 183.978 C 341.615 182.340, 334.072 180.325, 329.341 179.500 C 324.609 178.675, 316.859 178.040, 312.119 178.090 C 307.379 178.139, 300.008 178.811, 295.740 179.583 M 292 227.152 C 288.975 228.255, 282.450 230.026, 277.500 231.088 C 272.550 232.150, 262.650 233.298, 255.500 233.639 C 244.331 234.172, 242.183 234.547, 240.250 236.304 C 238.981 237.457, 238 239.521, 238 241.039 C 238 242.519, 238.933 244.916, 240.073 246.365 C 242.101 248.943, 242.396 249, 253.823 248.996 C 260.245 248.994, 269.664 248.317, 274.752 247.491 C 279.841 246.666, 288.257 244.629, 293.455 242.964 C 300.191 240.806, 303.493 239.189, 304.952 237.333 C 306.079 235.902, 307 233.856, 307 232.788 C 307 231.720, 305.685 229.531, 304.077 227.923 C 302.469 226.315, 300.332 225.033, 299.327 225.073 C 298.322 225.113, 295.025 226.049, 292 227.152 M 325.500 237.155 C 324.400 237.756, 322.938 238.954, 322.250 239.815 C 321.563 240.677, 321 242.546, 321 243.969 C 321 245.391, 321.675 247.518, 322.499 248.695 C 323.404 249.987, 327.070 251.850, 331.749 253.397 C 336.012 254.806, 342.875 256.685, 347 257.573 C 351.125 258.460, 360.669 259.432, 368.209 259.732 C 377.771 260.112, 382.798 259.912, 384.829 259.071 C 386.430 258.408, 388.249 256.749, 388.870 255.385 C 389.492 254.022, 390 252.277, 390 251.509 C 390 250.740, 388.929 248.866, 387.619 247.343 C 385.267 244.609, 385.080 244.573, 372.369 244.374 C 364.975 244.258, 356.096 243.459, 351.500 242.495 C 347.100 241.572, 340.125 239.738, 336 238.421 C 331.875 237.103, 328.275 236.033, 328 236.043 C 327.725 236.053, 326.600 236.553, 325.500 237.155 M 246.974 275.048 C 246.179 276.535, 246.181 278.557, 246.984 282.423 C 247.592 285.353, 249.398 289.813, 250.997 292.334 C 252.596 294.855, 255.809 298.298, 258.138 299.985 C 260.467 301.672, 264.839 303.769, 267.853 304.646 C 271.339 305.659, 275.093 306.031, 278.166 305.667 C 280.824 305.352, 284.934 304.238, 287.300 303.192 C 289.666 302.145, 293.248 299.843, 295.261 298.076 C 297.273 296.309, 300.049 292.531, 301.429 289.682 C 302.810 286.832, 304.235 282.590, 304.596 280.255 C 305.031 277.448, 304.831 275.501, 304.004 274.505 C 302.948 273.232, 298.541 273, 275.413 273 C 248.880 273, 248.038 273.061, 246.974 275.048 M 323.682 273.651 C 323.307 274.026, 323 275.978, 323 277.989 C 323 279.999, 323.709 283.724, 324.575 286.266 C 325.441 288.809, 327.973 292.960, 330.202 295.492 C 332.430 298.023, 336.559 301.283, 339.377 302.736 C 343.523 304.874, 345.930 305.390, 352 305.439 C 357.861 305.487, 360.505 305.005, 364.100 303.233 C 366.630 301.987, 370.386 299.287, 372.448 297.233 C 374.509 295.180, 377.123 291.700, 378.257 289.500 C 379.614 286.867, 380.349 283.450, 380.409 279.500 C 380.500 273.500, 380.500 273.500, 352.432 273.235 C 336.994 273.089, 324.057 273.276, 323.682 273.651 M 220.122 308.594 C 216.205 312.220, 213.002 315.708, 213.004 316.344 C 213.006 316.980, 224.202 329.615, 237.884 344.422 C 262.759 371.344, 262.759 371.344, 263.413 377.723 C 263.772 381.231, 264.942 386.441, 266.013 389.301 C 267.084 392.160, 268.928 395.103, 270.112 395.841 C 271.892 396.950, 274.663 396.969, 286.121 395.954 C 294.847 395.181, 306.369 394.963, 317.239 395.365 C 326.733 395.716, 338.381 396.281, 343.125 396.621 C 348.594 397.012, 353.022 396.818, 355.228 396.090 C 357.141 395.458, 359.683 393.902, 360.877 392.631 C 362.071 391.360, 363.433 388.976, 363.904 387.333 C 364.468 385.369, 364.318 383.056, 363.466 380.578 C 362.753 378.506, 361.209 375.787, 360.034 374.536 C 358.859 373.286, 355.783 371.116, 353.199 369.716 C 350.614 368.316, 345.646 366.213, 342.158 365.044 C 338.670 363.874, 331.529 362.035, 326.289 360.957 C 321.049 359.878, 311.528 358.352, 305.131 357.565 C 298.734 356.777, 287.976 355.814, 281.225 355.423 C 268.949 354.714, 268.949 354.714, 249.384 328.357 C 238.624 313.861, 229.240 302, 228.531 302 C 227.823 302, 224.039 304.967, 220.122 308.594 M 284.140 375.250 C 287.344 379.500, 287.344 379.500, 309.422 379.535 C 321.565 379.553, 333.300 379.880, 335.500 380.261 C 339.500 380.952, 339.500 380.952, 335.822 379.553 C 333.799 378.784, 327.499 377.221, 321.822 376.080 C 316.145 374.939, 305.425 373.334, 298 372.513 C 290.575 371.691, 283.698 371.015, 282.718 371.010 C 281.235 371.002, 281.472 371.711, 284.140 375.250" stroke="none" fill="#0000ff" fill-rule="evenodd"/><path d="M 1415.633 78.488 C 1411.856 79.274, 1406.456 80.674, 1403.633 81.599 C 1400.810 82.524, 1395.125 84.968, 1391 87.031 C 1386.875 89.094, 1380.688 92.855, 1377.250 95.389 C 1373.813 97.923, 1371.015 100.334, 1371.033 100.748 C 1371.052 101.162, 1371.970 102.585, 1373.074 103.911 C 1375.082 106.322, 1375.082 106.322, 1378.927 104.161 C 1381.492 102.719, 1384.496 102, 1387.952 102 C 1390.801 102, 1393.997 102.463, 1395.055 103.030 C 1396.114 103.596, 1397.771 105.508, 1398.740 107.280 C 1400.392 110.303, 1400.531 119.925, 1401 264.500 C 1401.500 418.500, 1401.500 418.500, 1403.926 422.736 C 1405.261 425.066, 1407.961 428.085, 1409.926 429.445 C 1411.892 430.805, 1415.525 432.646, 1418 433.537 C 1420.475 434.427, 1426.775 435.397, 1432 435.692 C 1437.277 435.990, 1444.120 435.737, 1447.394 435.122 C 1450.636 434.513, 1455.586 432.957, 1458.394 431.664 C 1461.202 430.371, 1464.945 427.825, 1466.712 426.006 C 1468.858 423.796, 1470.289 421.005, 1471.023 417.599 C 1471.803 413.980, 1472.032 367.354, 1471.811 257 C 1471.500 101.500, 1471.500 101.500, 1469.142 96.286 C 1467.846 93.419, 1464.673 89.097, 1462.092 86.683 C 1459.329 84.099, 1454.952 81.361, 1451.449 80.028 C 1446.839 78.272, 1442.912 77.683, 1434 77.411 C 1426.576 77.184, 1420.066 77.566, 1415.633 78.488 M 1545.831 78.023 C 1543.263 78.457, 1538.538 79.572, 1535.331 80.502 C 1532.124 81.432, 1526.800 83.327, 1523.500 84.713 C 1520.200 86.098, 1514.350 89.264, 1510.500 91.748 C 1506.650 94.232, 1502.328 97.246, 1500.895 98.446 C 1498.290 100.626, 1498.290 100.626, 1500.600 103.523 C 1502.909 106.419, 1502.909 106.419, 1506.841 104.210 C 1509.562 102.680, 1512.423 102.007, 1516.136 102.022 C 1519.702 102.037, 1522.215 102.624, 1523.633 103.772 C 1524.806 104.723, 1526.381 106.625, 1527.133 108 C 1528.266 110.072, 1528.586 136.859, 1529 264.500 C 1529.498 417.785, 1529.510 418.519, 1531.570 422.500 C 1532.762 424.804, 1535.663 427.872, 1538.412 429.736 C 1541.037 431.516, 1545.056 433.535, 1547.343 434.221 C 1549.808 434.962, 1556.792 435.442, 1564.500 435.402 C 1575.531 435.345, 1578.383 434.991, 1583.332 433.065 C 1586.540 431.816, 1590.725 429.424, 1592.633 427.749 C 1594.541 426.074, 1596.867 423.307, 1597.801 421.602 C 1599.375 418.728, 1599.521 407.278, 1599.790 266 C 1599.979 166.577, 1599.725 110.804, 1599.062 105.753 C 1598.502 101.492, 1597.166 96.286, 1596.094 94.185 C 1595.022 92.083, 1592.339 88.732, 1590.132 86.738 C 1587.925 84.744, 1584.704 82.381, 1582.974 81.486 C 1581.243 80.592, 1576.829 79.224, 1573.164 78.447 C 1569.499 77.670, 1562.900 77.080, 1558.500 77.135 C 1554.100 77.190, 1548.399 77.590, 1545.831 78.023 M 1229.821 83.440 C 1225.598 84.182, 1219.073 85.793, 1215.321 87.020 C 1211.570 88.246, 1204.900 91.090, 1200.500 93.338 C 1194.509 96.400, 1190.329 99.586, 1183.856 106.026 C 1176.190 113.653, 1174.584 115.920, 1169.660 126.063 C 1166.607 132.353, 1162.970 141.775, 1161.579 147 C 1160.189 152.225, 1158.374 161.041, 1157.548 166.591 C 1156.722 172.142, 1155.592 184.517, 1155.037 194.091 C 1154.483 203.666, 1153.990 237.600, 1153.942 269.500 C 1153.855 327.500, 1153.855 327.500, 1144.153 308 C 1138.817 297.275, 1123.703 265.775, 1110.566 238 C 1097.429 210.225, 1079.707 173.100, 1071.182 155.500 C 1062.658 137.900, 1053.918 120.694, 1051.761 117.264 C 1049.603 113.834, 1045.768 109.205, 1043.238 106.979 C 1040.708 104.752, 1035.907 101.630, 1032.569 100.042 C 1029.231 98.454, 1022.840 96.224, 1018.366 95.086 C 1013.893 93.948, 1005.568 92.506, 999.866 91.882 C 993.837 91.223, 982.806 90.980, 973.500 91.303 C 964.700 91.608, 953.557 92.580, 948.738 93.464 C 943.919 94.348, 936.044 96.208, 931.238 97.598 C 926.432 98.987, 918.395 102.065, 913.377 104.438 C 908.360 106.811, 901.567 110.578, 898.282 112.808 C 894.998 115.039, 889.779 119.178, 886.685 122.005 C 883.591 124.833, 878.953 129.926, 876.378 133.323 C 873.803 136.720, 869.781 143.550, 867.440 148.500 C 865.099 153.450, 862.389 161.100, 861.418 165.500 C 860.423 170.006, 859.625 177.868, 859.590 183.500 C 859.556 189, 860.146 195.975, 860.901 199 C 861.656 202.025, 863.396 206.750, 864.768 209.500 C 866.139 212.250, 868.570 216.162, 870.170 218.194 C 871.770 220.226, 875.325 223.537, 878.070 225.552 C 880.816 227.567, 885.353 230.086, 888.155 231.151 C 890.956 232.215, 896.373 233.478, 900.192 233.958 C 904.325 234.477, 909.841 234.448, 913.818 233.888 C 917.493 233.369, 923.200 231.671, 926.500 230.114 C 929.800 228.557, 934.433 225.310, 936.795 222.898 C 939.158 220.487, 942.306 216.035, 943.790 213.007 C 946.079 208.336, 946.489 206.209, 946.488 199 C 946.486 191.695, 946.106 189.776, 943.779 185.354 C 942.155 182.267, 939.645 179.326, 937.508 178.005 C 935.547 176.793, 932.145 175.561, 929.947 175.266 C 926.316 174.779, 925.165 175.269, 917.375 180.615 C 909.133 186.271, 908.554 186.500, 902.473 186.500 C 897.648 186.500, 895.493 186.012, 893.392 184.443 C 891.877 183.312, 889.706 180.612, 888.569 178.443 C 886.911 175.283, 886.507 172.712, 886.537 165.500 C 886.567 158.419, 887.044 155.466, 888.775 151.651 C 889.985 148.984, 892.635 144.541, 894.663 141.778 C 896.691 139.016, 901.283 134.336, 904.867 131.380 C 908.452 128.423, 915.235 124.020, 919.942 121.596 C 924.649 119.172, 931.875 116.138, 936 114.855 C 942.012 112.984, 945.782 112.519, 955 112.511 C 962.282 112.504, 967.642 112.982, 969.615 113.815 C 972.704 115.120, 972.735 115.208, 973.356 124.315 C 973.701 129.367, 974.267 164.550, 974.614 202.500 C 975.018 246.583, 974.838 283.958, 974.115 306 C 973.493 324.975, 972.340 345.225, 971.553 351 C 970.766 356.775, 969.423 364.776, 968.568 368.781 C 967.714 372.785, 965.743 379.335, 964.190 383.337 C 962.636 387.338, 959.673 393.161, 957.605 396.277 C 955.536 399.392, 951.489 404.092, 948.611 406.721 C 945.733 409.349, 940.851 412.735, 937.764 414.244 C 934.676 415.753, 929.304 417.659, 925.825 418.479 C 922.346 419.299, 915.129 419.977, 909.788 419.985 C 902.483 419.996, 898.745 419.502, 894.708 417.992 C 891.756 416.888, 887.497 414.405, 885.242 412.475 C 882.988 410.546, 878.580 405.262, 875.448 400.733 C 872.315 396.205, 869.047 391.938, 868.185 391.250 C 867.323 390.563, 865.294 390, 863.677 390 C 862.059 390, 859.242 390.923, 857.416 392.052 C 855.372 393.315, 853.137 396.102, 851.601 399.302 C 850.228 402.161, 848.806 406.188, 848.441 408.250 C 848.076 410.313, 848.078 413.602, 848.445 415.560 C 848.819 417.554, 850.711 420.888, 852.747 423.141 C 854.745 425.353, 858.882 428.418, 861.940 429.951 C 864.998 431.485, 870.565 433.501, 874.312 434.432 C 878.059 435.363, 885.930 436.509, 891.805 436.979 C 897.868 437.465, 907.560 437.449, 914.224 436.943 C 920.681 436.453, 928.826 435.388, 932.323 434.577 C 935.820 433.766, 941.744 431.950, 945.487 430.541 C 949.230 429.132, 954.699 426.603, 957.641 424.919 C 960.583 423.236, 965.416 419.882, 968.383 417.466 C 971.349 415.050, 975.902 410.244, 978.501 406.787 C 981.100 403.330, 984.691 397.576, 986.482 394 C 988.273 390.425, 990.916 384.068, 992.355 379.873 C 993.794 375.678, 995.690 369.153, 996.567 365.373 C 997.444 361.593, 998.868 353.775, 999.730 348 C 1001.016 339.390, 1001.407 322.294, 1001.899 253 C 1002.500 168.500, 1002.500 168.500, 1014.160 194 C 1020.573 208.025, 1030.310 229.625, 1035.796 242 C 1041.283 254.375, 1050.825 275.525, 1057.001 289 C 1063.178 302.475, 1072.876 322.725, 1078.552 334 C 1084.229 345.275, 1092.996 361.690, 1098.035 370.478 C 1103.075 379.266, 1111.348 392.766, 1116.420 400.478 C 1121.492 408.190, 1129.269 419.041, 1133.702 424.592 C 1138.136 430.142, 1145.808 438.764, 1150.752 443.750 C 1155.696 448.737, 1163.303 455.458, 1167.657 458.686 C 1172.011 461.914, 1179.157 466.413, 1183.536 468.684 C 1187.916 470.956, 1194.875 473.868, 1199 475.157 C 1205.466 477.177, 1208.567 477.500, 1221.500 477.499 C 1232.254 477.499, 1238.906 476.981, 1245 475.672 C 1249.675 474.667, 1256.200 472.950, 1259.500 471.856 C 1262.800 470.762, 1269.100 468.128, 1273.500 466.004 C 1277.900 463.879, 1282.380 461.485, 1283.455 460.684 C 1285.367 459.259, 1285.345 459.143, 1282.455 455.423 C 1280.830 453.332, 1279.224 451.215, 1278.886 450.720 C 1278.548 450.226, 1276.520 450.714, 1274.380 451.806 C 1272.240 452.898, 1268.514 454.323, 1266.100 454.973 C 1262.760 455.873, 1260.135 455.881, 1255.117 455.007 C 1251.426 454.364, 1245.592 452.318, 1241.864 450.359 C 1238.201 448.434, 1232.114 444.258, 1228.337 441.079 C 1224.560 437.900, 1218.296 431.519, 1214.416 426.899 C 1210.536 422.280, 1204.637 414.675, 1201.307 410 C 1197.976 405.325, 1192.270 396.667, 1188.626 390.761 C 1182 380.022, 1182 380.022, 1182.022 296.261 C 1182.034 250.192, 1182.469 203.500, 1182.988 192.500 C 1183.507 181.500, 1184.851 167.100, 1185.976 160.500 C 1187.101 153.900, 1188.957 145.575, 1190.102 142 C 1191.247 138.425, 1193.298 133.142, 1194.659 130.260 C 1196.021 127.378, 1198.904 122.653, 1201.066 119.760 C 1203.227 116.867, 1207.809 112.360, 1211.248 109.745 C 1214.687 107.129, 1219.828 104.111, 1222.674 103.037 C 1225.519 101.964, 1230.841 100.564, 1234.500 99.927 C 1238.159 99.289, 1245.281 98.962, 1250.326 99.199 C 1257.200 99.522, 1260.559 100.179, 1263.722 101.821 C 1266.044 103.026, 1269.609 105.472, 1271.644 107.256 C 1273.678 109.040, 1276.579 112.204, 1278.090 114.287 C 1280.836 118.073, 1280.836 118.073, 1276.025 122.573 C 1273.236 125.182, 1270.261 129.263, 1268.944 132.286 C 1267.414 135.798, 1266.673 139.458, 1266.673 143.500 C 1266.673 147.560, 1267.415 151.204, 1268.968 154.770 C 1270.426 158.117, 1273.224 161.832, 1276.635 164.950 C 1279.671 167.724, 1284.505 170.855, 1287.753 172.151 C 1292.513 174.050, 1295.389 174.445, 1304.500 174.455 C 1314.312 174.465, 1316.113 174.180, 1321.178 171.820 C 1324.301 170.364, 1328.892 167.297, 1331.380 165.004 C 1333.868 162.710, 1337.051 158.533, 1338.452 155.721 C 1340.464 151.683, 1341 149.112, 1341 143.500 C 1341 137.888, 1340.464 135.317, 1338.452 131.279 C 1337.051 128.467, 1333.867 124.288, 1331.377 121.993 C 1328.887 119.699, 1324.379 116.689, 1321.358 115.306 C 1318.337 113.923, 1314.095 112.554, 1311.932 112.264 C 1308.001 111.737, 1308 111.736, 1307.995 107.118 C 1307.992 104.097, 1307.213 101.229, 1305.745 98.826 C 1304.510 96.805, 1302.375 94.280, 1301 93.213 C 1299.625 92.147, 1296.634 90.327, 1294.352 89.169 C 1292.071 88.011, 1286.896 86.096, 1282.852 84.914 C 1276.733 83.124, 1272.314 82.707, 1256.500 82.427 C 1243.593 82.198, 1235.038 82.523, 1229.821 83.440 M 1774.500 92.078 C 1770.650 92.604, 1762.841 94.154, 1757.148 95.522 C 1751.454 96.891, 1742.433 99.723, 1737.101 101.816 C 1731.770 103.909, 1723.663 107.844, 1719.086 110.561 C 1714.510 113.277, 1707.105 118.456, 1702.632 122.068 C 1698.160 125.681, 1691.424 132.191, 1687.665 136.535 C 1683.906 140.879, 1678.585 147.824, 1675.841 151.967 C 1673.097 156.110, 1668.641 164.048, 1665.939 169.607 C 1663.237 175.166, 1659.247 185.066, 1657.071 191.607 C 1654.895 198.148, 1652.227 208, 1651.142 213.500 C 1650.057 219, 1648.626 228.826, 1647.962 235.336 C 1647.194 242.859, 1646.939 255.792, 1647.262 270.836 C 1647.654 289.053, 1648.280 297.377, 1649.983 307 C 1651.200 313.875, 1653.724 324.550, 1655.593 330.722 C 1657.461 336.895, 1660.741 346.007, 1662.882 350.972 C 1665.022 355.936, 1668.656 363.288, 1670.957 367.310 C 1673.257 371.331, 1677.440 377.744, 1680.251 381.560 C 1683.063 385.377, 1689.234 392.325, 1693.964 397 C 1698.695 401.675, 1706.422 408.085, 1711.135 411.243 C 1715.848 414.402, 1723.934 418.986, 1729.102 421.430 C 1734.271 423.874, 1742.045 427.026, 1746.378 428.436 C 1750.710 429.846, 1754.985 431.036, 1755.878 431.079 C 1756.770 431.123, 1754.575 431.792, 1751 432.567 C 1747.425 433.341, 1741.699 435.352, 1738.276 437.037 C 1734.853 438.721, 1729.600 442.340, 1726.604 445.079 C 1723.607 447.818, 1719.449 452.629, 1717.364 455.771 C 1715.279 458.913, 1712.588 463.962, 1711.386 466.992 C 1710.183 470.021, 1708.903 473.919, 1708.541 475.653 C 1707.928 478.596, 1708.124 478.886, 1711.485 479.995 C 1715.040 481.168, 1715.138 481.125, 1719.067 476.662 C 1721.339 474.080, 1724.607 471.625, 1726.682 470.940 C 1728.964 470.187, 1733.513 469.934, 1738.908 470.261 C 1744.688 470.611, 1750.772 471.838, 1757.500 474.011 C 1763 475.787, 1773.575 479.841, 1781 483.020 C 1788.425 486.199, 1813.850 498.421, 1837.500 510.181 C 1861.150 521.940, 1887.475 534.336, 1896 537.727 C 1904.525 541.118, 1914.875 544.833, 1919 545.983 C 1923.125 547.133, 1930.103 548.341, 1934.507 548.668 C 1939.193 549.016, 1945.546 548.751, 1949.827 548.029 C 1954.078 547.312, 1960.036 545.347, 1964.059 543.334 C 1967.865 541.430, 1973.423 537.638, 1976.411 534.907 C 1979.399 532.176, 1983.556 527.367, 1985.649 524.221 C 1987.742 521.074, 1990.884 514.675, 1992.631 510 C 1994.378 505.325, 1996.490 497.454, 1997.323 492.509 C 1998.469 485.708, 1998.554 483.331, 1997.669 482.749 C 1997.026 482.325, 1995.176 482.096, 1993.558 482.239 C 1991.213 482.447, 1990.457 483.116, 1989.836 485.531 C 1989.407 487.199, 1987.602 490.050, 1985.826 491.867 C 1984.049 493.685, 1980.549 496.194, 1978.047 497.443 C 1975.546 498.692, 1972.158 500.038, 1970.518 500.434 C 1968.877 500.831, 1963.477 501.142, 1958.518 501.125 C 1952.190 501.105, 1946.666 500.352, 1940 498.603 C 1934.775 497.231, 1925.775 494.333, 1920 492.163 C 1914.225 489.992, 1904.325 485.970, 1898 483.226 C 1891.675 480.482, 1873 472.055, 1856.500 464.498 C 1840 456.942, 1818.850 447.714, 1809.500 443.992 C 1800.150 440.270, 1791.825 437.024, 1791 436.778 C 1790.175 436.532, 1795.125 436.052, 1802 435.712 C 1808.875 435.373, 1818.331 434.415, 1823.013 433.583 C 1827.696 432.752, 1835.571 430.904, 1840.513 429.476 C 1845.456 428.048, 1853.649 425.063, 1858.719 422.844 C 1863.789 420.625, 1872.114 416.058, 1877.219 412.696 C 1882.324 409.334, 1890.490 402.739, 1895.367 398.041 C 1900.244 393.344, 1907.113 385.675, 1910.632 381 C 1914.151 376.325, 1919.897 366.853, 1923.400 359.951 C 1926.903 353.049, 1931.434 342.254, 1933.468 335.963 C 1935.502 329.671, 1938.009 320.468, 1939.040 315.512 C 1940.071 310.555, 1941.488 302.225, 1942.189 297 C 1942.937 291.426, 1943.454 277.375, 1943.439 263 C 1943.421 245.161, 1942.949 235.373, 1941.706 227 C 1940.766 220.675, 1938.879 210.884, 1937.512 205.243 C 1936.146 199.602, 1933.402 190.602, 1931.416 185.243 C 1929.430 179.884, 1925.653 171.376, 1923.023 166.335 C 1920.393 161.294, 1916.053 153.869, 1913.380 149.835 C 1910.706 145.801, 1903.565 137.502, 1897.510 131.393 C 1891.454 125.284, 1883.125 118.034, 1879 115.281 C 1874.875 112.529, 1868.316 108.673, 1864.424 106.713 C 1860.532 104.753, 1852.776 101.559, 1847.189 99.614 C 1841.602 97.669, 1832.186 95.115, 1826.265 93.938 C 1818.538 92.401, 1810.703 91.702, 1798.500 91.460 C 1789.150 91.275, 1778.350 91.553, 1774.500 92.078 M 1785.045 111.092 C 1782.595 111.573, 1778.152 113.159, 1775.172 114.617 C 1772.192 116.075, 1766.655 120.191, 1762.867 123.764 C 1759.079 127.338, 1753.912 133.371, 1751.385 137.173 C 1748.858 140.974, 1745.289 147.778, 1743.454 152.292 C 1741.619 156.807, 1738.948 164.550, 1737.519 169.500 C 1736.089 174.450, 1733.845 184.350, 1732.531 191.500 C 1731.217 198.650, 1729.617 208.775, 1728.975 214 C 1728.333 219.225, 1727.571 237.322, 1727.282 254.215 C 1726.954 273.407, 1727.192 290.477, 1727.917 299.715 C 1728.555 307.847, 1729.977 320.125, 1731.075 327 C 1732.174 333.875, 1733.740 342.425, 1734.554 346 C 1735.368 349.575, 1737.424 356.775, 1739.122 362 C 1740.820 367.225, 1744.245 375.462, 1746.734 380.305 C 1749.857 386.381, 1753.565 391.561, 1758.703 397.022 C 1764.197 402.863, 1767.942 405.833, 1773.004 408.365 C 1776.956 410.343, 1782.944 412.316, 1787.141 413.024 C 1792.706 413.962, 1796.317 413.987, 1802.461 413.126 C 1807.511 412.419, 1812.792 410.877, 1816.665 408.980 C 1820.056 407.318, 1825.045 403.967, 1827.751 401.534 C 1830.458 399.100, 1834.509 394.722, 1836.754 391.804 C 1838.999 388.887, 1842.621 382.900, 1844.804 378.500 C 1846.987 374.100, 1850.130 366.225, 1851.790 361 C 1853.449 355.775, 1855.723 347.225, 1856.843 342 C 1857.964 336.775, 1859.581 327.325, 1860.438 321 C 1861.295 314.675, 1862.446 302.300, 1862.995 293.500 C 1863.544 284.700, 1863.993 271.200, 1863.993 263.500 C 1863.993 255.800, 1863.544 242.300, 1862.995 233.500 C 1862.446 224.700, 1861.294 212.325, 1860.436 206 C 1859.577 199.675, 1857.781 189.306, 1856.444 182.958 C 1855.107 176.610, 1852.682 167.477, 1851.055 162.664 C 1849.428 157.850, 1846.536 150.668, 1844.628 146.705 C 1842.721 142.742, 1838.915 136.537, 1836.172 132.916 C 1833.429 129.295, 1829.138 124.531, 1826.637 122.329 C 1824.135 120.127, 1819.481 116.952, 1816.294 115.272 C 1813.107 113.592, 1808.115 111.718, 1805.201 111.109 C 1802.286 110.499, 1797.561 110.049, 1794.701 110.110 C 1791.840 110.170, 1787.495 110.612, 1785.045 111.092 M 1292.500 195.715 C 1290.850 195.943, 1286.800 196.801, 1283.500 197.623 C 1280.200 198.444, 1275.128 199.987, 1272.229 201.052 C 1269.330 202.117, 1264.830 204.075, 1262.229 205.404 C 1259.628 206.733, 1254.237 210.123, 1250.250 212.937 C 1246.263 215.750, 1243 218.412, 1243 218.852 C 1243 219.292, 1244.128 220.711, 1245.507 222.006 C 1248.013 224.361, 1248.013 224.361, 1251.893 222.180 C 1254.410 220.766, 1257.490 220, 1260.664 220 C 1263.567 220, 1266.501 220.663, 1267.883 221.631 C 1269.164 222.528, 1270.839 224.763, 1271.606 226.599 C 1272.763 229.368, 1273.001 245.206, 1273.006 319.718 C 1273.009 373.119, 1273.406 411.907, 1273.984 415.439 C 1274.630 419.382, 1275.901 422.576, 1277.767 424.939 C 1279.348 426.943, 1283.452 429.953, 1287.150 431.822 C 1292.763 434.658, 1295.104 435.226, 1303.172 435.708 C 1308.769 436.041, 1315.448 435.779, 1319.556 435.064 C 1323.370 434.400, 1329.052 432.491, 1332.182 430.822 C 1335.710 428.942, 1338.945 426.244, 1340.687 423.729 C 1343.500 419.671, 1343.500 419.671, 1343.500 319.085 C 1343.500 218.670, 1343.496 218.492, 1341.377 213.911 C 1340.210 211.386, 1337.549 207.615, 1335.464 205.530 C 1333.379 203.445, 1329.303 200.655, 1326.407 199.329 C 1323.511 198.003, 1318.522 196.489, 1315.321 195.965 C 1312.119 195.441, 1306.350 195.076, 1302.500 195.156 C 1298.650 195.235, 1294.150 195.486, 1292.500 195.715" stroke="none" fill="#ffffff" fill-rule="evenodd"/><path d="M 1415.633 78.488 C 1411.856 79.274, 1406.456 80.674, 1403.633 81.599 C 1400.810 82.524, 1395.125 84.968, 1391 87.031 C 1386.875 89.094, 1380.688 92.855, 1377.250 95.389 C 1373.813 97.923, 1371.015 100.334, 1371.033 100.748 C 1371.052 101.162, 1371.970 102.585, 1373.074 103.911 C 1375.082 106.322, 1375.082 106.322, 1378.927 104.161 C 1381.492 102.719, 1384.496 102, 1387.952 102 C 1390.801 102, 1393.997 102.463, 1395.055 103.030 C 1396.114 103.596, 1397.771 105.508, 1398.740 107.280 C 1400.392 110.303, 1400.531 119.925, 1401 264.500 C 1401.500 418.500, 1401.500 418.500, 1403.926 422.736 C 1405.261 425.066, 1407.961 428.085, 1409.926 429.445 C 1411.892 430.805, 1415.525 432.646, 1418 433.537 C 1420.475 434.427, 1426.775 435.397, 1432 435.692 C 1437.277 435.990, 1444.120 435.737, 1447.394 435.122 C 1450.636 434.513, 1455.586 432.957, 1458.394 431.664 C 1461.202 430.371, 1464.945 427.825, 1466.712 426.006 C 1468.858 423.796, 1470.289 421.005, 1471.023 417.599 C 1471.803 413.980, 1472.032 367.354, 1471.811 257 C 1471.500 101.500, 1471.500 101.500, 1469.142 96.286 C 1467.846 93.419, 1464.673 89.097, 1462.092 86.683 C 1459.329 84.099, 1454.952 81.361, 1451.449 80.028 C 1446.839 78.272, 1442.912 77.683, 1434 77.411 C 1426.576 77.184, 1420.066 77.566, 1415.633 78.488 M 1545.831 78.023 C 1543.263 78.457, 1538.538 79.572, 1535.331 80.502 C 1532.124 81.432, 1526.800 83.327, 1523.500 84.713 C 1520.200 86.098, 1514.350 89.264, 1510.500 91.748 C 1506.650 94.232, 1502.328 97.246, 1500.895 98.446 C 1498.290 100.626, 1498.290 100.626, 1500.600 103.523 C 1502.909 106.419, 1502.909 106.419, 1506.841 104.210 C 1509.562 102.680, 1512.423 102.007, 1516.136 102.022 C 1519.702 102.037, 1522.215 102.624, 1523.633 103.772 C 1524.806 104.723, 1526.381 106.625, 1527.133 108 C 1528.266 110.072, 1528.586 136.859, 1529 264.500 C 1529.498 417.785, 1529.510 418.519, 1531.570 422.500 C 1532.762 424.804, 1535.663 427.872, 1538.412 429.736 C 1541.037 431.516, 1545.056 433.535, 1547.343 434.221 C 1549.808 434.962, 1556.792 435.442, 1564.500 435.402 C 1575.531 435.345, 1578.383 434.991, 1583.332 433.065 C 1586.540 431.816, 1590.725 429.424, 1592.633 427.749 C 1594.541 426.074, 1596.867 423.307, 1597.801 421.602 C 1599.375 418.728, 1599.521 407.278, 1599.790 266 C 1599.979 166.577, 1599.725 110.804, 1599.062 105.753 C 1598.502 101.492, 1597.166 96.286, 1596.094 94.185 C 1595.022 92.083, 1592.339 88.732, 1590.132 86.738 C 1587.925 84.744, 1584.704 82.381, 1582.974 81.486 C 1581.243 80.592, 1576.829 79.224, 1573.164 78.447 C 1569.499 77.670, 1562.900 77.080, 1558.500 77.135 C 1554.100 77.190, 1548.399 77.590, 1545.831 78.023 M 1229.821 83.440 C 1225.598 84.182, 1219.073 85.793, 1215.321 87.020 C 1211.570 88.246, 1204.900 91.090, 1200.500 93.338 C 1194.509 96.400, 1190.329 99.586, 1183.856 106.026 C 1176.190 113.653, 1174.584 115.920, 1169.660 126.063 C 1166.607 132.353, 1162.970 141.775, 1161.579 147 C 1160.189 152.225, 1158.374 161.041, 1157.548 166.591 C 1156.722 172.142, 1155.592 184.517, 1155.037 194.091 C 1154.483 203.666, 1153.990 237.600, 1153.942 269.500 C 1153.855 327.500, 1153.855 327.500, 1144.153 308 C 1138.817 297.275, 1123.703 265.775, 1110.566 238 C 1097.429 210.225, 1079.707 173.100, 1071.182 155.500 C 1062.658 137.900, 1053.918 120.694, 1051.761 117.264 C 1049.603 113.834, 1045.768 109.205, 1043.238 106.979 C 1040.708 104.752, 1035.907 101.630, 1032.569 100.042 C 1029.231 98.454, 1022.840 96.224, 1018.366 95.086 C 1013.893 93.948, 1005.568 92.506, 999.866 91.882 C 993.837 91.223, 982.806 90.980, 973.500 91.303 C 964.700 91.608, 953.557 92.580, 948.738 93.464 C 943.919 94.348, 936.044 96.208, 931.238 97.598 C 926.432 98.987, 918.395 102.065, 913.377 104.438 C 908.360 106.811, 901.567 110.578, 898.282 112.808 C 894.998 115.039, 889.779 119.178, 886.685 122.005 C 883.591 124.833, 878.953 129.926, 876.378 133.323 C 873.803 136.720, 869.781 143.550, 867.440 148.500 C 865.099 153.450, 862.389 161.100, 861.418 165.500 C 860.423 170.006, 859.625 177.868, 859.590 183.500 C 859.556 189, 860.146 195.975, 860.901 199 C 861.656 202.025, 863.396 206.750, 864.768 209.500 C 866.139 212.250, 868.570 216.162, 870.170 218.194 C 871.770 220.226, 875.325 223.537, 878.070 225.552 C 880.816 227.567, 885.353 230.086, 888.155 231.151 C 890.956 232.215, 896.373 233.478, 900.192 233.958 C 904.325 234.477, 909.841 234.448, 913.818 233.888 C 917.493 233.369, 923.200 231.671, 926.500 230.114 C 929.800 228.557, 934.433 225.310, 936.795 222.898 C 939.158 220.487, 942.306 216.035, 943.790 213.007 C 946.079 208.336, 946.489 206.209, 946.488 199 C 946.486 191.695, 946.106 189.776, 943.779 185.354 C 942.155 182.267, 939.645 179.326, 937.508 178.005 C 935.547 176.793, 932.145 175.561, 929.947 175.266 C 926.316 174.779, 925.165 175.269, 917.375 180.615 C 909.133 186.271, 908.554 186.500, 902.473 186.500 C 897.648 186.500, 895.493 186.012, 893.392 184.443 C 891.877 183.312, 889.706 180.612, 888.569 178.443 C 886.911 175.283, 886.507 172.712, 886.537 165.500 C 886.567 158.419, 887.044 155.466, 888.775 151.651 C 889.985 148.984, 892.635 144.541, 894.663 141.778 C 896.691 139.016, 901.283 134.336, 904.867 131.380 C 908.452 128.423, 915.235 124.020, 919.942 121.596 C 924.649 119.172, 931.875 116.138, 936 114.855 C 942.012 112.984, 945.782 112.519, 955 112.511 C 962.282 112.504, 967.642 112.982, 969.615 113.815 C 972.704 115.120, 972.735 115.208, 973.356 124.315 C 973.701 129.367, 974.267 164.550, 974.614 202.500 C 975.018 246.583, 974.838 283.958, 974.115 306 C 973.493 324.975, 972.340 345.225, 971.553 351 C 970.766 356.775, 969.423 364.776, 968.568 368.781 C 967.714 372.785, 965.743 379.335, 964.190 383.337 C 962.636 387.338, 959.673 393.161, 957.605 396.277 C 955.536 399.392, 951.489 404.092, 948.611 406.721 C 945.733 409.349, 940.851 412.735, 937.764 414.244 C 934.676 415.753, 929.304 417.659, 925.825 418.479 C 922.346 419.299, 915.129 419.977, 909.788 419.985 C 902.483 419.996, 898.745 419.502, 894.708 417.992 C 891.756 416.888, 887.497 414.405, 885.242 412.475 C 882.988 410.546, 878.580 405.262, 875.448 400.733 C 872.315 396.205, 869.047 391.938, 868.185 391.250 C 867.323 390.563, 865.294 390, 863.677 390 C 862.059 390, 859.242 390.923, 857.416 392.052 C 855.372 393.315, 853.137 396.102, 851.601 399.302 C 850.228 402.161, 848.806 406.188, 848.441 408.250 C 848.076 410.313, 848.078 413.602, 848.445 415.560 C 848.819 417.554, 850.711 420.888, 852.747 423.141 C 854.745 425.353, 858.882 428.418, 861.940 429.951 C 864.998 431.485, 870.565 433.501, 874.312 434.432 C 878.059 435.363, 885.930 436.509, 891.805 436.979 C 897.868 437.465, 907.560 437.449, 914.224 436.943 C 920.681 436.453, 928.826 435.388, 932.323 434.577 C 935.820 433.766, 941.744 431.950, 945.487 430.541 C 949.230 429.132, 954.699 426.603, 957.641 424.919 C 960.583 423.236, 965.416 419.882, 968.383 417.466 C 971.349 415.050, 975.902 410.244, 978.501 406.787 C 981.100 403.330, 984.691 397.576, 986.482 394 C 988.273 390.425, 990.916 384.068, 992.355 379.873 C 993.794 375.678, 995.690 369.153, 996.567 365.373 C 997.444 361.593, 998.868 353.775, 999.730 348 C 1001.016 339.390, 1001.407 322.294, 1001.899 253 C 1002.500 168.500, 1002.500 168.500, 1014.160 194 C 1020.573 208.025, 1030.310 229.625, 1035.796 242 C 1041.283 254.375, 1050.825 275.525, 1057.001 289 C 1063.178 302.475, 1072.876 322.725, 1078.552 334 C 1084.229 345.275, 1092.996 361.690, 1098.035 370.478 C 1103.075 379.266, 1111.348 392.766, 1116.420 400.478 C 1121.492 408.190, 1129.269 419.041, 1133.702 424.592 C 1138.136 430.142, 1145.808 438.764, 1150.752 443.750 C 1155.696 448.737, 1163.303 455.458, 1167.657 458.686 C 1172.011 461.914, 1179.157 466.413, 1183.536 468.684 C 1187.916 470.956, 1194.875 473.868, 1199 475.157 C 1205.466 477.177, 1208.567 477.500, 1221.500 477.499 C 1232.254 477.499, 1238.906 476.981, 1245 475.672 C 1249.675 474.667, 1256.200 472.950, 1259.500 471.856 C 1262.800 470.762, 1269.100 468.128, 1273.500 466.004 C 1277.900 463.879, 1282.380 461.485, 1283.455 460.684 C 1285.367 459.259, 1285.345 459.143, 1282.455 455.423 C 1280.830 453.332, 1279.224 451.215, 1278.886 450.720 C 1278.548 450.226, 1276.520 450.714, 1274.380 451.806 C 1272.240 452.898, 1268.514 454.323, 1266.100 454.973 C 1262.760 455.873, 1260.135 455.881, 1255.117 455.007 C 1251.426 454.364, 1245.592 452.318, 1241.864 450.359 C 1238.201 448.434, 1232.114 444.258, 1228.337 441.079 C 1224.560 437.900, 1218.296 431.519, 1214.416 426.899 C 1210.536 422.280, 1204.637 414.675, 1201.307 410 C 1197.976 405.325, 1192.270 396.667, 1188.626 390.761 C 1182 380.022, 1182 380.022, 1182.022 296.261 C 1182.034 250.192, 1182.469 203.500, 1182.988 192.500 C 1183.507 181.500, 1184.851 167.100, 1185.976 160.500 C 1187.101 153.900, 1188.957 145.575, 1190.102 142 C 1191.247 138.425, 1193.298 133.142, 1194.659 130.260 C 1196.021 127.378, 1198.904 122.653, 1201.066 119.760 C 1203.227 116.867, 1207.809 112.360, 1211.248 109.745 C 1214.687 107.129, 1219.828 104.111, 1222.674 103.037 C 1225.519 101.964, 1230.841 100.564, 1234.500 99.927 C 1238.159 99.289, 1245.281 98.962, 1250.326 99.199 C 1257.200 99.522, 1260.559 100.179, 1263.722 101.821 C 1266.044 103.026, 1269.609 105.472, 1271.644 107.256 C 1273.678 109.040, 1276.579 112.204, 1278.090 114.287 C 1280.836 118.073, 1280.836 118.073, 1276.025 122.573 C 1273.236 125.182, 1270.261 129.263, 1268.944 132.286 C 1267.414 135.798, 1266.673 139.458, 1266.673 143.500 C 1266.673 147.560, 1267.415 151.204, 1268.968 154.770 C 1270.426 158.117, 1273.224 161.832, 1276.635 164.950 C 1279.671 167.724, 1284.505 170.855, 1287.753 172.151 C 1292.513 174.050, 1295.389 174.445, 1304.500 174.455 C 1314.312 174.465, 1316.113 174.180, 1321.178 171.820 C 1324.301 170.364, 1328.892 167.297, 1331.380 165.004 C 1333.868 162.710, 1337.051 158.533, 1338.452 155.721 C 1340.464 151.683, 1341 149.112, 1341 143.500 C 1341 137.888, 1340.464 135.317, 1338.452 131.279 C 1337.051 128.467, 1333.867 124.288, 1331.377 121.993 C 1328.887 119.699, 1324.379 116.689, 1321.358 115.306 C 1318.337 113.923, 1314.095 112.554, 1311.932 112.264 C 1308.001 111.737, 1308 111.736, 1307.995 107.118 C 1307.992 104.097, 1307.213 101.229, 1305.745 98.826 C 1304.510 96.805, 1302.375 94.280, 1301 93.213 C 1299.625 92.147, 1296.634 90.327, 1294.352 89.169 C 1292.071 88.011, 1286.896 86.096, 1282.852 84.914 C 1276.733 83.124, 1272.314 82.707, 1256.500 82.427 C 1243.593 82.198, 1235.038 82.523, 1229.821 83.440 M 1774.500 92.078 C 1770.650 92.604, 1762.841 94.154, 1757.148 95.522 C 1751.454 96.891, 1742.433 99.723, 1737.101 101.816 C 1731.770 103.909, 1723.663 107.844, 1719.086 110.561 C 1714.510 113.277, 1707.105 118.456, 1702.632 122.068 C 1698.160 125.681, 1691.424 132.191, 1687.665 136.535 C 1683.906 140.879, 1678.585 147.824, 1675.841 151.967 C 1673.097 156.110, 1668.641 164.048, 1665.939 169.607 C 1663.237 175.166, 1659.247 185.066, 1657.071 191.607 C 1654.895 198.148, 1652.227 208, 1651.142 213.500 C 1650.057 219, 1648.626 228.826, 1647.962 235.336 C 1647.194 242.859, 1646.939 255.792, 1647.262 270.836 C 1647.654 289.053, 1648.280 297.377, 1649.983 307 C 1651.200 313.875, 1653.724 324.550, 1655.593 330.722 C 1657.461 336.895, 1660.741 346.007, 1662.882 350.972 C 1665.022 355.936, 1668.656 363.288, 1670.957 367.310 C 1673.257 371.331, 1677.440 377.744, 1680.251 381.560 C 1683.063 385.377, 1689.234 392.325, 1693.964 397 C 1698.695 401.675, 1706.422 408.085, 1711.135 411.243 C 1715.848 414.402, 1723.934 418.986, 1729.102 421.430 C 1734.271 423.874, 1742.045 427.026, 1746.378 428.436 C 1750.710 429.846, 1754.985 431.036, 1755.878 431.079 C 1756.770 431.123, 1754.575 431.792, 1751 432.567 C 1747.425 433.341, 1741.699 435.352, 1738.276 437.037 C 1734.853 438.721, 1729.600 442.340, 1726.604 445.079 C 1723.607 447.818, 1719.449 452.629, 1717.364 455.771 C 1715.279 458.913, 1712.588 463.962, 1711.386 466.992 C 1710.183 470.021, 1708.903 473.919, 1708.541 475.653 C 1707.928 478.596, 1708.124 478.886, 1711.485 479.995 C 1715.040 481.168, 1715.138 481.125, 1719.067 476.662 C 1721.339 474.080, 1724.607 471.625, 1726.682 470.940 C 1728.964 470.187, 1733.513 469.934, 1738.908 470.261 C 1744.688 470.611, 1750.772 471.838, 1757.500 474.011 C 1763 475.787, 1773.575 479.841, 1781 483.020 C 1788.425 486.199, 1813.850 498.421, 1837.500 510.181 C 1861.150 521.940, 1887.475 534.336, 1896 537.727 C 1904.525 541.118, 1914.875 544.833, 1919 545.983 C 1923.125 547.133, 1930.103 548.341, 1934.507 548.668 C 1939.193 549.016, 1945.546 548.751, 1949.827 548.029 C 1954.078 547.312, 1960.036 545.347, 1964.059 543.334 C 1967.865 541.430, 1973.423 537.638, 1976.411 534.907 C 1979.399 532.176, 1983.556 527.367, 1985.649 524.221 C 1987.742 521.074, 1990.884 514.675, 1992.631 510 C 1994.378 505.325, 1996.490 497.454, 1997.323 492.509 C 1998.469 485.708, 1998.554 483.331, 1997.669 482.749 C 1997.026 482.325, 1995.176 482.096, 1993.558 482.239 C 1991.213 482.447, 1990.457 483.116, 1989.836 485.531 C 1989.407 487.199, 1987.602 490.050, 1985.826 491.867 C 1984.049 493.685, 1980.549 496.194, 1978.047 497.443 C 1975.546 498.692, 1972.158 500.038, 1970.518 500.434 C 1968.877 500.831, 1963.477 501.142, 1958.518 501.125 C 1952.190 501.105, 1946.666 500.352, 1940 498.603 C 1934.775 497.231, 1925.775 494.333, 1920 492.163 C 1914.225 489.992, 1904.325 485.970, 1898 483.226 C 1891.675 480.482, 1873 472.055, 1856.500 464.498 C 1840 456.942, 1818.850 447.714, 1809.500 443.992 C 1800.150 440.270, 1791.825 437.024, 1791 436.778 C 1790.175 436.532, 1795.125 436.052, 1802 435.712 C 1808.875 435.373, 1818.331 434.415, 1823.013 433.583 C 1827.696 432.752, 1835.571 430.904, 1840.513 429.476 C 1845.456 428.048, 1853.649 425.063, 1858.719 422.844 C 1863.789 420.625, 1872.114 416.058, 1877.219 412.696 C 1882.324 409.334, 1890.490 402.739, 1895.367 398.041 C 1900.244 393.344, 1907.113 385.675, 1910.632 381 C 1914.151 376.325, 1919.897 366.853, 1923.400 359.951 C 1926.903 353.049, 1931.434 342.254, 1933.468 335.963 C 1935.502 329.671, 1938.009 320.468, 1939.040 315.512 C 1940.071 310.555, 1941.488 302.225, 1942.189 297 C 1942.937 291.426, 1943.454 277.375, 1943.439 263 C 1943.421 245.161, 1942.949 235.373, 1941.706 227 C 1940.766 220.675, 1938.879 210.884, 1937.512 205.243 C 1936.146 199.602, 1933.402 190.602, 1931.416 185.243 C 1929.430 179.884, 1925.653 171.376, 1923.023 166.335 C 1920.393 161.294, 1916.053 153.869, 1913.380 149.835 C 1910.706 145.801, 1903.565 137.502, 1897.510 131.393 C 1891.454 125.284, 1883.125 118.034, 1879 115.281 C 1874.875 112.529, 1868.316 108.673, 1864.424 106.713 C 1860.532 104.753, 1852.776 101.559, 1847.189 99.614 C 1841.602 97.669, 1832.186 95.115, 1826.265 93.938 C 1818.538 92.401, 1810.703 91.702, 1798.500 91.460 C 1789.150 91.275, 1778.350 91.553, 1774.500 92.078 M 1785.045 111.092 C 1782.595 111.573, 1778.152 113.159, 1775.172 114.617 C 1772.192 116.075, 1766.655 120.191, 1762.867 123.764 C 1759.079 127.338, 1753.912 133.371, 1751.385 137.173 C 1748.858 140.974, 1745.289 147.778, 1743.454 152.292 C 1741.619 156.807, 1738.948 164.550, 1737.519 169.500 C 1736.089 174.450, 1733.845 184.350, 1732.531 191.500 C 1731.217 198.650, 1729.617 208.775, 1728.975 214 C 1728.333 219.225, 1727.571 237.322, 1727.282 254.215 C 1726.954 273.407, 1727.192 290.477, 1727.917 299.715 C 1728.555 307.847, 1729.977 320.125, 1731.075 327 C 1732.174 333.875, 1733.740 342.425, 1734.554 346 C 1735.368 349.575, 1737.424 356.775, 1739.122 362 C 1740.820 367.225, 1744.245 375.462, 1746.734 380.305 C 1749.857 386.381, 1753.565 391.561, 1758.703 397.022 C 1764.197 402.863, 1767.942 405.833, 1773.004 408.365 C 1776.956 410.343, 1782.944 412.316, 1787.141 413.024 C 1792.706 413.962, 1796.317 413.987, 1802.461 413.126 C 1807.511 412.419, 1812.792 410.877, 1816.665 408.980 C 1820.056 407.318, 1825.045 403.967, 1827.751 401.534 C 1830.458 399.100, 1834.509 394.722, 1836.754 391.804 C 1838.999 388.887, 1842.621 382.900, 1844.804 378.500 C 1846.987 374.100, 1850.130 366.225, 1851.790 361 C 1853.449 355.775, 1855.723 347.225, 1856.843 342 C 1857.964 336.775, 1859.581 327.325, 1860.438 321 C 1861.295 314.675, 1862.446 302.300, 1862.995 293.500 C 1863.544 284.700, 1863.993 271.200, 1863.993 263.500 C 1863.993 255.800, 1863.544 242.300, 1862.995 233.500 C 1862.446 224.700, 1861.294 212.325, 1860.436 206 C 1859.577 199.675, 1857.781 189.306, 1856.444 182.958 C 1855.107 176.610, 1852.682 167.477, 1851.055 162.664 C 1849.428 157.850, 1846.536 150.668, 1844.628 146.705 C 1842.721 142.742, 1838.915 136.537, 1836.172 132.916 C 1833.429 129.295, 1829.138 124.531, 1826.637 122.329 C 1824.135 120.127, 1819.481 116.952, 1816.294 115.272 C 1813.107 113.592, 1808.115 111.718, 1805.201 111.109 C 1802.286 110.499, 1797.561 110.049, 1794.701 110.110 C 1791.840 110.170, 1787.495 110.612, 1785.045 111.092 M 1292.500 195.715 C 1290.850 195.943, 1286.800 196.801, 1283.500 197.623 C 1280.200 198.444, 1275.128 199.987, 1272.229 201.052 C 1269.330 202.117, 1264.830 204.075, 1262.229 205.404 C 1259.628 206.733, 1254.237 210.123, 1250.250 212.937 C 1246.263 215.750, 1243 218.412, 1243 218.852 C 1243 219.292, 1244.128 220.711, 1245.507 222.006 C 1248.013 224.361, 1248.013 224.361, 1251.893 222.180 C 1254.410 220.766, 1257.490 220, 1260.664 220 C 1263.567 220, 1266.501 220.663, 1267.883 221.631 C 1269.164 222.528, 1270.839 224.763, 1271.606 226.599 C 1272.763 229.368, 1273.001 245.206, 1273.006 319.718 C 1273.009 373.119, 1273.406 411.907, 1273.984 415.439 C 1274.630 419.382, 1275.901 422.576, 1277.767 424.939 C 1279.348 426.943, 1283.452 429.953, 1287.150 431.822 C 1292.763 434.658, 1295.104 435.226, 1303.172 435.708 C 1308.769 436.041, 1315.448 435.779, 1319.556 435.064 C 1323.370 434.400, 1329.052 432.491, 1332.182 430.822 C 1335.710 428.942, 1338.945 426.244, 1340.687 423.729 C 1343.500 419.671, 1343.500 419.671, 1343.500 319.085 C 1343.500 218.670, 1343.496 218.492, 1341.377 213.911 C 1340.210 211.386, 1337.549 207.615, 1335.464 205.530 C 1333.379 203.445, 1329.303 200.655, 1326.407 199.329 C 1323.511 198.003, 1318.522 196.489, 1315.321 195.965 C 1312.119 195.441, 1306.350 195.076, 1302.500 195.156 C 1298.650 195.235, 1294.150 195.486, 1292.500 195.715" stroke="none" fill="#ffffff" fill-rule="evenodd"/><path d="M 1415.633 78.488 C 1411.856 79.274, 1406.456 80.674, 1403.633 81.599 C 1400.810 82.524, 1395.125 84.968, 1391 87.031 C 1386.875 89.094, 1380.688 92.855, 1377.250 95.389 C 1373.813 97.923, 1371.015 100.334, 1371.033 100.748 C 1371.052 101.162, 1371.970 102.585, 1373.074 103.911 C 1375.082 106.322, 1375.082 106.322, 1378.927 104.161 C 1381.492 102.719, 1384.496 102, 1387.952 102 C 1390.801 102, 1393.997 102.463, 1395.055 103.030 C 1396.114 103.596, 1397.771 105.508, 1398.740 107.280 C 1400.392 110.303, 1400.531 119.925, 1401 264.500 C 1401.500 418.500, 1401.500 418.500, 1403.926 422.736 C 1405.261 425.066, 1407.961 428.085, 1409.926 429.445 C 1411.892 430.805, 1415.525 432.646, 1418 433.537 C 1420.475 434.427, 1426.775 435.397, 1432 435.692 C 1437.277 435.990, 1444.120 435.737, 1447.394 435.122 C 1450.636 434.513, 1455.586 432.957, 1458.394 431.664 C 1461.202 430.371, 1464.945 427.825, 1466.712 426.006 C 1468.858 423.796, 1470.289 421.005, 1471.023 417.599 C 1471.803 413.980, 1472.032 367.354, 1471.811 257 C 1471.500 101.500, 1471.500 101.500, 1469.142 96.286 C 1467.846 93.419, 1464.673 89.097, 1462.092 86.683 C 1459.329 84.099, 1454.952 81.361, 1451.449 80.028 C 1446.839 78.272, 1442.912 77.683, 1434 77.411 C 1426.576 77.184, 1420.066 77.566, 1415.633 78.488 M 1545.831 78.023 C 1543.263 78.457, 1538.538 79.572, 1535.331 80.502 C 1532.124 81.432, 1526.800 83.327, 1523.500 84.713 C 1520.200 86.098, 1514.350 89.264, 1510.500 91.748 C 1506.650 94.232, 1502.328 97.246, 1500.895 98.446 C 1498.290 100.626, 1498.290 100.626, 1500.600 103.523 C 1502.909 106.419, 1502.909 106.419, 1506.841 104.210 C 1509.562 102.680, 1512.423 102.007, 1516.136 102.022 C 1519.702 102.037, 1522.215 102.624, 1523.633 103.772 C 1524.806 104.723, 1526.381 106.625, 1527.133 108 C 1528.266 110.072, 1528.586 136.859, 1529 264.500 C 1529.498 417.785, 1529.510 418.519, 1531.570 422.500 C 1532.762 424.804, 1535.663 427.872, 1538.412 429.736 C 1541.037 431.516, 1545.056 433.535, 1547.343 434.221 C 1549.808 434.962, 1556.792 435.442, 1564.500 435.402 C 1575.531 435.345, 1578.383 434.991, 1583.332 433.065 C 1586.540 431.816, 1590.725 429.424, 1592.633 427.749 C 1594.541 426.074, 1596.867 423.307, 1597.801 421.602 C 1599.375 418.728, 1599.521 407.278, 1599.790 266 C 1599.979 166.577, 1599.725 110.804, 1599.062 105.753 C 1598.502 101.492, 1597.166 96.286, 1596.094 94.185 C 1595.022 92.083, 1592.339 88.732, 1590.132 86.738 C 1587.925 84.744, 1584.704 82.381, 1582.974 81.486 C 1581.243 80.592, 1576.829 79.224, 1573.164 78.447 C 1569.499 77.670, 1562.900 77.080, 1558.500 77.135 C 1554.100 77.190, 1548.399 77.590, 1545.831 78.023 M 1229.821 83.440 C 1225.598 84.182, 1219.073 85.793, 1215.321 87.020 C 1211.570 88.246, 1204.900 91.090, 1200.500 93.338 C 1194.509 96.400, 1190.329 99.586, 1183.856 106.026 C 1176.190 113.653, 1174.584 115.920, 1169.660 126.063 C 1166.607 132.353, 1162.970 141.775, 1161.579 147 C 1160.189 152.225, 1158.374 161.041, 1157.548 166.591 C 1156.722 172.142, 1155.592 184.517, 1155.037 194.091 C 1154.483 203.666, 1153.990 237.600, 1153.942 269.500 C 1153.855 327.500, 1153.855 327.500, 1144.153 308 C 1138.817 297.275, 1123.703 265.775, 1110.566 238 C 1097.429 210.225, 1079.707 173.100, 1071.182 155.500 C 1062.658 137.900, 1053.918 120.694, 1051.761 117.264 C 1049.603 113.834, 1045.768 109.205, 1043.238 106.979 C 1040.708 104.752, 1035.907 101.630, 1032.569 100.042 C 1029.231 98.454, 1022.840 96.224, 1018.366 95.086 C 1013.893 93.948, 1005.568 92.506, 999.866 91.882 C 993.837 91.223, 982.806 90.980, 973.500 91.303 C 964.700 91.608, 953.557 92.580, 948.738 93.464 C 943.919 94.348, 936.044 96.208, 931.238 97.598 C 926.432 98.987, 918.395 102.065, 913.377 104.438 C 908.360 106.811, 901.567 110.578, 898.282 112.808 C 894.998 115.039, 889.779 119.178, 886.685 122.005 C 883.591 124.833, 878.953 129.926, 876.378 133.323 C 873.803 136.720, 869.781 143.550, 867.440 148.500 C 865.099 153.450, 862.389 161.100, 861.418 165.500 C 860.423 170.006, 859.625 177.868, 859.590 183.500 C 859.556 189, 860.146 195.975, 860.901 199 C 861.656 202.025, 863.396 206.750, 864.768 209.500 C 866.139 212.250, 868.570 216.162, 870.170 218.194 C 871.770 220.226, 875.325 223.537, 878.070 225.552 C 880.816 227.567, 885.353 230.086, 888.155 231.151 C 890.956 232.215, 896.373 233.478, 900.192 233.958 C 904.325 234.477, 909.841 234.448, 913.818 233.888 C 917.493 233.369, 923.200 231.671, 926.500 230.114 C 929.800 228.557, 934.433 225.310, 936.795 222.898 C 939.158 220.487, 942.306 216.035, 943.790 213.007 C 946.079 208.336, 946.489 206.209, 946.488 199 C 946.486 191.695, 946.106 189.776, 943.779 185.354 C 942.155 182.267, 939.645 179.326, 937.508 178.005 C 935.547 176.793, 932.145 175.561, 929.947 175.266 C 926.316 174.779, 925.165 175.269, 917.375 180.615 C 909.133 186.271, 908.554 186.500, 902.473 186.500 C 897.648 186.500, 895.493 186.012, 893.392 184.443 C 891.877 183.312, 889.706 180.612, 888.569 178.443 C 886.911 175.283, 886.507 172.712, 886.537 165.500 C 886.567 158.419, 887.044 155.466, 888.775 151.651 C 889.985 148.984, 892.635 144.541, 894.663 141.778 C 896.691 139.016, 901.283 134.336, 904.867 131.380 C 908.452 128.423, 915.235 124.020, 919.942 121.596 C 924.649 119.172, 931.875 116.138, 936 114.855 C 942.012 112.984, 945.782 112.519, 955 112.511 C 962.282 112.504, 967.642 112.982, 969.615 113.815 C 972.704 115.120, 972.735 115.208, 973.356 124.315 C 973.701 129.367, 974.267 164.550, 974.614 202.500 C 975.018 246.583, 974.838 283.958, 974.115 306 C 973.493 324.975, 972.340 345.225, 971.553 351 C 970.766 356.775, 969.423 364.776, 968.568 368.781 C 967.714 372.785, 965.743 379.335, 964.190 383.337 C 962.636 387.338, 959.673 393.161, 957.605 396.277 C 955.536 399.392, 951.489 404.092, 948.611 406.721 C 945.733 409.349, 940.851 412.735, 937.764 414.244 C 934.676 415.753, 929.304 417.659, 925.825 418.479 C 922.346 419.299, 915.129 419.977, 909.788 419.985 C 902.483 419.996, 898.745 419.502, 894.708 417.992 C 891.756 416.888, 887.497 414.405, 885.242 412.475 C 882.988 410.546, 878.580 405.262, 875.448 400.733 C 872.315 396.205, 869.047 391.938, 868.185 391.250 C 867.323 390.563, 865.294 390, 863.677 390 C 862.059 390, 859.242 390.923, 857.416 392.052 C 855.372 393.315, 853.137 396.102, 851.601 399.302 C 850.228 402.161, 848.806 406.188, 848.441 408.250 C 848.076 410.313, 848.078 413.602, 848.445 415.560 C 848.819 417.554, 850.711 420.888, 852.747 423.141 C 854.745 425.353, 858.882 428.418, 861.940 429.951 C 864.998 431.485, 870.565 433.501, 874.312 434.432 C 878.059 435.363, 885.930 436.509, 891.805 436.979 C 897.868 437.465, 907.560 437.449, 914.224 436.943 C 920.681 436.453, 928.826 435.388, 932.323 434.577 C 935.820 433.766, 941.744 431.950, 945.487 430.541 C 949.230 429.132, 954.699 426.603, 957.641 424.919 C 960.583 423.236, 965.416 419.882, 968.383 417.466 C 971.349 415.050, 975.902 410.244, 978.501 406.787 C 981.100 403.330, 984.691 397.576, 986.482 394 C 988.273 390.425, 990.916 384.068, 992.355 379.873 C 993.794 375.678, 995.690 369.153, 996.567 365.373 C 997.444 361.593, 998.868 353.775, 999.730 348 C 1001.016 339.390, 1001.407 322.294, 1001.899 253 C 1002.500 168.500, 1002.500 168.500, 1014.160 194 C 1020.573 208.025, 1030.310 229.625, 1035.796 242 C 1041.283 254.375, 1050.825 275.525, 1057.001 289 C 1063.178 302.475, 1072.876 322.725, 1078.552 334 C 1084.229 345.275, 1092.996 361.690, 1098.035 370.478 C 1103.075 379.266, 1111.348 392.766, 1116.420 400.478 C 1121.492 408.190, 1129.269 419.041, 1133.702 424.592 C 1138.136 430.142, 1145.808 438.764, 1150.752 443.750 C 1155.696 448.737, 1163.303 455.458, 1167.657 458.686 C 1172.011 461.914, 1179.157 466.413, 1183.536 468.684 C 1187.916 470.956, 1194.875 473.868, 1199 475.157 C 1205.466 477.177, 1208.567 477.500, 1221.500 477.499 C 1232.254 477.499, 1238.906 476.981, 1245 475.672 C 1249.675 474.667, 1256.200 472.950, 1259.500 471.856 C 1262.800 470.762, 1269.100 468.128, 1273.500 466.004 C 1277.900 463.879, 1282.380 461.485, 1283.455 460.684 C 1285.367 459.259, 1285.345 459.143, 1282.455 455.423 C 1280.830 453.332, 1279.224 451.215, 1278.886 450.720 C 1278.548 450.226, 1276.520 450.714, 1274.380 451.806 C 1272.240 452.898, 1268.514 454.323, 1266.100 454.973 C 1262.760 455.873, 1260.135 455.881, 1255.117 455.007 C 1251.426 454.364, 1245.592 452.318, 1241.864 450.359 C 1238.201 448.434, 1232.114 444.258, 1228.337 441.079 C 1224.560 437.900, 1218.296 431.519, 1214.416 426.899 C 1210.536 422.280, 1204.637 414.675, 1201.307 410 C 1197.976 405.325, 1192.270 396.667, 1188.626 390.761 C 1182 380.022, 1182 380.022, 1182.022 296.261 C 1182.034 250.192, 1182.469 203.500, 1182.988 192.500 C 1183.507 181.500, 1184.851 167.100, 1185.976 160.500 C 1187.101 153.900, 1188.957 145.575, 1190.102 142 C 1191.247 138.425, 1193.298 133.142, 1194.659 130.260 C 1196.021 127.378, 1198.904 122.653, 1201.066 119.760 C 1203.227 116.867, 1207.809 112.360, 1211.248 109.745 C 1214.687 107.129, 1219.828 104.111, 1222.674 103.037 C 1225.519 101.964, 1230.841 100.564, 1234.500 99.927 C 1238.159 99.289, 1245.281 98.962, 1250.326 99.199 C 1257.200 99.522, 1260.559 100.179, 1263.722 101.821 C 1266.044 103.026, 1269.609 105.472, 1271.644 107.256 C 1273.678 109.040, 1276.579 112.204, 1278.090 114.287 C 1280.836 118.073, 1280.836 118.073, 1276.025 122.573 C 1273.236 125.182, 1270.261 129.263, 1268.944 132.286 C 1267.414 135.798, 1266.673 139.458, 1266.673 143.500 C 1266.673 147.560, 1267.415 151.204, 1268.968 154.770 C 1270.426 158.117, 1273.224 161.832, 1276.635 164.950 C 1279.671 167.724, 1284.505 170.855, 1287.753 172.151 C 1292.513 174.050, 1295.389 174.445, 1304.500 174.455 C 1314.312 174.465, 1316.113 174.180, 1321.178 171.820 C 1324.301 170.364, 1328.892 167.297, 1331.380 165.004 C 1333.868 162.710, 1337.051 158.533, 1338.452 155.721 C 1340.464 151.683, 1341 149.112, 1341 143.500 C 1341 137.888, 1340.464 135.317, 1338.452 131.279 C 1337.051 128.467, 1333.867 124.288, 1331.377 121.993 C 1328.887 119.699, 1324.379 116.689, 1321.358 115.306 C 1318.337 113.923, 1314.095 112.554, 1311.932 112.264 C 1308.001 111.737, 1308 111.736, 1307.995 107.118 C 1307.992 104.097, 1307.213 101.229, 1305.745 98.826 C 1304.510 96.805, 1302.375 94.280, 1301 93.213 C 1299.625 92.147, 1296.634 90.327, 1294.352 89.169 C 1292.071 88.011, 1286.896 86.096, 1282.852 84.914 C 1276.733 83.124, 1272.314 82.707, 1256.500 82.427 C 1243.593 82.198, 1235.038 82.523, 1229.821 83.440 M 1774.500 92.078 C 1770.650 92.604, 1762.841 94.154, 1757.148 95.522 C 1751.454 96.891, 1742.433 99.723, 1737.101 101.816 C 1731.770 103.909, 1723.663 107.844, 1719.086 110.561 C 1714.510 113.277, 1707.105 118.456, 1702.632 122.068 C 1698.160 125.681, 1691.424 132.191, 1687.665 136.535 C 1683.906 140.879, 1678.585 147.824, 1675.841 151.967 C 1673.097 156.110, 1668.641 164.048, 1665.939 169.607 C 1663.237 175.166, 1659.247 185.066, 1657.071 191.607 C 1654.895 198.148, 1652.227 208, 1651.142 213.500 C 1650.057 219, 1648.626 228.826, 1647.962 235.336 C 1647.194 242.859, 1646.939 255.792, 1647.262 270.836 C 1647.654 289.053, 1648.280 297.377, 1649.983 307 C 1651.200 313.875, 1653.724 324.550, 1655.593 330.722 C 1657.461 336.895, 1660.741 346.007, 1662.882 350.972 C 1665.022 355.936, 1668.656 363.288, 1670.957 367.310 C 1673.257 371.331, 1677.440 377.744, 1680.251 381.560 C 1683.063 385.377, 1689.234 392.325, 1693.964 397 C 1698.695 401.675, 1706.422 408.085, 1711.135 411.243 C 1715.848 414.402, 1723.934 418.986, 1729.102 421.430 C 1734.271 423.874, 1742.045 427.026, 1746.378 428.436 C 1750.710 429.846, 1754.985 431.036, 1755.878 431.079 C 1756.770 431.123, 1754.575 431.792, 1751 432.567 C 1747.425 433.341, 1741.699 435.352, 1738.276 437.037 C 1734.853 438.721, 1729.600 442.340, 1726.604 445.079 C 1723.607 447.818, 1719.449 452.629, 1717.364 455.771 C 1715.279 458.913, 1712.588 463.962, 1711.386 466.992 C 1710.183 470.021, 1708.903 473.919, 1708.541 475.653 C 1707.928 478.596, 1708.124 478.886, 1711.485 479.995 C 1715.040 481.168, 1715.138 481.125, 1719.067 476.662 C 1721.339 474.080, 1724.607 471.625, 1726.682 470.940 C 1728.964 470.187, 1733.513 469.934, 1738.908 470.261 C 1744.688 470.611, 1750.772 471.838, 1757.500 474.011 C 1763 475.787, 1773.575 479.841, 1781 483.020 C 1788.425 486.199, 1813.850 498.421, 1837.500 510.181 C 1861.150 521.940, 1887.475 534.336, 1896 537.727 C 1904.525 541.118, 1914.875 544.833, 1919 545.983 C 1923.125 547.133, 1930.103 548.341, 1934.507 548.668 C 1939.193 549.016, 1945.546 548.751, 1949.827 548.029 C 1954.078 547.312, 1960.036 545.347, 1964.059 543.334 C 1967.865 541.430, 1973.423 537.638, 1976.411 534.907 C 1979.399 532.176, 1983.556 527.367, 1985.649 524.221 C 1987.742 521.074, 1990.884 514.675, 1992.631 510 C 1994.378 505.325, 1996.490 497.454, 1997.323 492.509 C 1998.469 485.708, 1998.554 483.331, 1997.669 482.749 C 1997.026 482.325, 1995.176 482.096, 1993.558 482.239 C 1991.213 482.447, 1990.457 483.116, 1989.836 485.531 C 1989.407 487.199, 1987.602 490.050, 1985.826 491.867 C 1984.049 493.685, 1980.549 496.194, 1978.047 497.443 C 1975.546 498.692, 1972.158 500.038, 1970.518 500.434 C 1968.877 500.831, 1963.477 501.142, 1958.518 501.125 C 1952.190 501.105, 1946.666 500.352, 1940 498.603 C 1934.775 497.231, 1925.775 494.333, 1920 492.163 C 1914.225 489.992, 1904.325 485.970, 1898 483.226 C 1891.675 480.482, 1873 472.055, 1856.500 464.498 C 1840 456.942, 1818.850 447.714, 1809.500 443.992 C 1800.150 440.270, 1791.825 437.024, 1791 436.778 C 1790.175 436.532, 1795.125 436.052, 1802 435.712 C 1808.875 435.373, 1818.331 434.415, 1823.013 433.583 C 1827.696 432.752, 1835.571 430.904, 1840.513 429.476 C 1845.456 428.048, 1853.649 425.063, 1858.719 422.844 C 1863.789 420.625, 1872.114 416.058, 1877.219 412.696 C 1882.324 409.334, 1890.490 402.739, 1895.367 398.041 C 1900.244 393.344, 1907.113 385.675, 1910.632 381 C 1914.151 376.325, 1919.897 366.853, 1923.400 359.951 C 1926.903 353.049, 1931.434 342.254, 1933.468 335.963 C 1935.502 329.671, 1938.009 320.468, 1939.040 315.512 C 1940.071 310.555, 1941.488 302.225, 1942.189 297 C 1942.937 291.426, 1943.454 277.375, 1943.439 263 C 1943.421 245.161, 1942.949 235.373, 1941.706 227 C 1940.766 220.675, 1938.879 210.884, 1937.512 205.243 C 1936.146 199.602, 1933.402 190.602, 1931.416 185.243 C 1929.430 179.884, 1925.653 171.376, 1923.023 166.335 C 1920.393 161.294, 1916.053 153.869, 1913.380 149.835 C 1910.706 145.801, 1903.565 137.502, 1897.510 131.393 C 1891.454 125.284, 1883.125 118.034, 1879 115.281 C 1874.875 112.529, 1868.316 108.673, 1864.424 106.713 C 1860.532 104.753, 1852.776 101.559, 1847.189 99.614 C 1841.602 97.669, 1832.186 95.115, 1826.265 93.938 C 1818.538 92.401, 1810.703 91.702, 1798.500 91.460 C 1789.150 91.275, 1778.350 91.553, 1774.500 92.078 M 1785.045 111.092 C 1782.595 111.573, 1778.152 113.159, 1775.172 114.617 C 1772.192 116.075, 1766.655 120.191, 1762.867 123.764 C 1759.079 127.338, 1753.912 133.371, 1751.385 137.173 C 1748.858 140.974, 1745.289 147.778, 1743.454 152.292 C 1741.619 156.807, 1738.948 164.550, 1737.519 169.500 C 1736.089 174.450, 1733.845 184.350, 1732.531 191.500 C 1731.217 198.650, 1729.617 208.775, 1728.975 214 C 1728.333 219.225, 1727.571 237.322, 1727.282 254.215 C 1726.954 273.407, 1727.192 290.477, 1727.917 299.715 C 1728.555 307.847, 1729.977 320.125, 1731.075 327 C 1732.174 333.875, 1733.740 342.425, 1734.554 346 C 1735.368 349.575, 1737.424 356.775, 1739.122 362 C 1740.820 367.225, 1744.245 375.462, 1746.734 380.305 C 1749.857 386.381, 1753.565 391.561, 1758.703 397.022 C 1764.197 402.863, 1767.942 405.833, 1773.004 408.365 C 1776.956 410.343, 1782.944 412.316, 1787.141 413.024 C 1792.706 413.962, 1796.317 413.987, 1802.461 413.126 C 1807.511 412.419, 1812.792 410.877, 1816.665 408.980 C 1820.056 407.318, 1825.045 403.967, 1827.751 401.534 C 1830.458 399.100, 1834.509 394.722, 1836.754 391.804 C 1838.999 388.887, 1842.621 382.900, 1844.804 378.500 C 1846.987 374.100, 1850.130 366.225, 1851.790 361 C 1853.449 355.775, 1855.723 347.225, 1856.843 342 C 1857.964 336.775, 1859.581 327.325, 1860.438 321 C 1861.295 314.675, 1862.446 302.300, 1862.995 293.500 C 1863.544 284.700, 1863.993 271.200, 1863.993 263.500 C 1863.993 255.800, 1863.544 242.300, 1862.995 233.500 C 1862.446 224.700, 1861.294 212.325, 1860.436 206 C 1859.577 199.675, 1857.781 189.306, 1856.444 182.958 C 1855.107 176.610, 1852.682 167.477, 1851.055 162.664 C 1849.428 157.850, 1846.536 150.668, 1844.628 146.705 C 1842.721 142.742, 1838.915 136.537, 1836.172 132.916 C 1833.429 129.295, 1829.138 124.531, 1826.637 122.329 C 1824.135 120.127, 1819.481 116.952, 1816.294 115.272 C 1813.107 113.592, 1808.115 111.718, 1805.201 111.109 C 1802.286 110.499, 1797.561 110.049, 1794.701 110.110 C 1791.840 110.170, 1787.495 110.612, 1785.045 111.092 M 1292.500 195.715 C 1290.850 195.943, 1286.800 196.801, 1283.500 197.623 C 1280.200 198.444, 1275.128 199.987, 1272.229 201.052 C 1269.330 202.117, 1264.830 204.075, 1262.229 205.404 C 1259.628 206.733, 1254.237 210.123, 1250.250 212.937 C 1246.263 215.750, 1243 218.412, 1243 218.852 C 1243 219.292, 1244.128 220.711, 1245.507 222.006 C 1248.013 224.361, 1248.013 224.361, 1251.893 222.180 C 1254.410 220.766, 1257.490 220, 1260.664 220 C 1263.567 220, 1266.501 220.663, 1267.883 221.631 C 1269.164 222.528, 1270.839 224.763, 1271.606 226.599 C 1272.763 229.368, 1273.001 245.206, 1273.006 319.718 C 1273.009 373.119, 1273.406 411.907, 1273.984 415.439 C 1274.630 419.382, 1275.901 422.576, 1277.767 424.939 C 1279.348 426.943, 1283.452 429.953, 1287.150 431.822 C 1292.763 434.658, 1295.104 435.226, 1303.172 435.708 C 1308.769 436.041, 1315.448 435.779, 1319.556 435.064 C 1323.370 434.400, 1329.052 432.491, 1332.182 430.822 C 1335.710 428.942, 1338.945 426.244, 1340.687 423.729 C 1343.500 419.671, 1343.500 419.671, 1343.500 319.085 C 1343.500 218.670, 1343.496 218.492, 1341.377 213.911 C 1340.210 211.386, 1337.549 207.615, 1335.464 205.530 C 1333.379 203.445, 1329.303 200.655, 1326.407 199.329 C 1323.511 198.003, 1318.522 196.489, 1315.321 195.965 C 1312.119 195.441, 1306.350 195.076, 1302.500 195.156 C 1298.650 195.235, 1294.150 195.486, 1292.500 195.715" stroke="none" fill="#ffffff" fill-rule="evenodd"/><path d="" stroke="none" fill="#000000" fill-rule="evenodd"/><path d="" stroke="none" fill="#0404fc" fill-rule="evenodd"/><path d="" stroke="none" fill="#fcfcfc" fill-rule="evenodd"/></svg>